<?xml version="1.0" standalone="no"?>
<!DOCTYPE svg PUBLIC "-//W3C//DTD SVG 20010904//EN"
 "http://www.w3.org/TR/2001/REC-SVG-20010904/DTD/svg10.dtd">
<svg version="1.0" xmlns="http://www.w3.org/2000/svg"
 width="700.000000pt" height="700.000000pt" viewBox="0 0 700.000000 700.000000"
 preserveAspectRatio="xMidYMid meet">
<metadata>
Created by potrace 1.11, written by Peter Selinger 2001-2013
</metadata>
<g transform="translate(0.000000,700.000000) scale(0.100000,-0.100000)"
fill="#000000" stroke="none">
<path d="M3085 6355 c-636 -68 -1029 -287 -1238 -692 -111 -214 -174 -454
-209 -793 -19 -181 -19 -2572 0 -2745 34 -311 108 -582 209 -765 63 -113 114
-182 208 -279 246 -255 611 -402 1145 -462 57 -7 453 -13 983 -16 l887 -5 0
436 0 436 -858 0 c-530 0 -890 4 -942 10 -283 35 -488 158 -582 350 -77 157
-88 258 -88 833 l0 417 1420 0 1420 0 0 854 c0 517 -4 895 -10 957 -82 818
-459 1287 -1151 1434 -169 36 -305 45 -694 44 -230 -1 -427 -6 -500 -14z m915
-874 c230 -69 406 -250 466 -482 15 -54 18 -137 21 -556 l5 -493 -947 0 -947
0 5 483 c6 553 11 601 88 757 73 147 181 233 352 280 120 33 205 38 552 36
308 -3 335 -4 405 -25z"/>
</g>
</svg>
