<?xml version="1.0" encoding="UTF-8" standalone="no"?>
<svg
   xmlns:dc="http://purl.org/dc/elements/1.1/"
   xmlns:cc="http://creativecommons.org/ns#"
   xmlns:rdf="http://www.w3.org/1999/02/22-rdf-syntax-ns#"
   xmlns:svg="http://www.w3.org/2000/svg"
   xmlns="http://www.w3.org/2000/svg"
   xmlns:sodipodi="http://sodipodi.sourceforge.net/DTD/sodipodi-0.dtd"
   xmlns:inkscape="http://www.inkscape.org/namespaces/inkscape"
   version="1.1"
   id="Layer_1"
   x="0px"
   y="0px"
   viewBox="0 0 2230.4 2230.3999"
   xml:space="preserve"
   sodipodi:docname="exercism-logo.svg"
   inkscape:version="0.92.3 (2405546, 2018-03-11)"
   width="2230.3999"
   height="2230.3999"><metadata
   id="metadata11"><rdf:RDF><cc:Work
       rdf:about=""><dc:format>image/svg+xml</dc:format><dc:type
         rdf:resource="http://purl.org/dc/dcmitype/StillImage" /><dc:title></dc:title></cc:Work></rdf:RDF></metadata><defs
   id="defs9" /><sodipodi:namedview
   pagecolor="#ffffff"
   bordercolor="#666666"
   borderopacity="1"
   objecttolerance="10"
   gridtolerance="10"
   guidetolerance="10"
   inkscape:pageopacity="0"
   inkscape:pageshadow="2"
   inkscape:window-width="1284"
   inkscape:window-height="581"
   id="namedview7"
   showgrid="false"
   inkscape:zoom="0.12982012"
   inkscape:cx="-286.73985"
   inkscape:cy="1322.4612"
   inkscape:window-x="1018"
   inkscape:window-y="193"
   inkscape:window-maximized="0"
   inkscape:current-layer="Layer_1"
   fit-margin-top="206.6"
   fit-margin-bottom="206.6"
   fit-margin-left="0"
   fit-margin-right="0" />
<path
   d="m 0,1110.8443 v -48.3 c 119,-10.6 189.5,-56.6 206.8,-157.39998 14.8,-85.8 -9.8,-249.3 -6.7,-387.8 3.5,-157 107.1,-289.20001 222.6,-305.80001 48,-6.9 83,-8.3 121.4,-0.3 35,6 63.3,26.3 76.4,52 v 74.20001 H 508.1 c -98,11.1 -135.6,76.9 -157.4,179.9 -26.1,123 101.7,561.79998 -170.9,593.59998 272.6,31.7 144.8,470.5 170.9,593.6 21.8,103 59.3,168.8 157.4,179.9 h 112.4 v 74.2 c -13.2,25.7 -41.4,46 -76.4,52 -38.4,8 -73.4,6.6 -121.4,-0.3 -115.5,-16.6 -219.1,-148.8 -222.6,-305.8 -3.1,-138.5 21.5,-302.1 6.7,-387.8 -17.3,-101 -87.8,-147 -206.8,-157.6 z m 2230.4,7.7 v -48.3 c -119,-10.6 -189.5,-56.6 -206.8,-157.39998 -14.8,-85.8 9.8,-249.3 6.7,-387.8 -3.5,-157 -107.1,-289.20001 -222.6,-305.80001 -48,-6.9 -83,-8.3 -121.4,-0.3 -35,6 -63.3,26.3 -76.4,52 v 74.20001 h 112.4 c 98,11.1 135.6,76.9 157.4,179.9 26.1,123 -101.7,561.79998 170.9,593.59998 -272.6,31.7 -144.8,470.5 -170.9,593.6 -21.8,103 -59.3,168.8 -157.4,179.9 h -112.4 v 74.2 c 13.2,25.7 41.4,46 76.4,52 38.4,8 73.4,6.6 121.4,-0.3 115.5,-16.6 219.1,-148.8 222.6,-305.8 3.1,-138.5 -21.5,-302.1 -6.7,-387.8 17.3,-100.8 87.8,-146.8 206.8,-157.4 z"
   id="path2"
   inkscape:connector-curvature="0" />
<path
   d="m 944.3,1141.1443 c 0,-139.7 -112.7,-252.89998 -251.8,-252.89998 -139.1,0 -251.8,113.29998 -251.8,252.89998 H 539 c 0,-85.2 68.7,-154.19998 153.5,-154.19998 84.8,0 153.5,69.09998 153.5,154.19998 z m 852.1,0 c 0,-139.7 -112.7,-252.89998 -251.8,-252.89998 -139.1,0 -251.8,113.19998 -251.8,252.89998 h 98.3 c 0,-85.2 68.7,-154.19998 153.5,-154.19998 84.8,0 153.5,68.99998 153.5,154.19998 z m -431.7,333.9 c -6.1,118.6 -109.4,220.1 -233.8,219.2 -124.8,-0.9 -227.3,-102.3 -233.8,-219.2 v -74.2 h 114.7 v 74.2 c 5.7,60 59.6,109.2 119.2,107.4 60.5,-1.9 116.7,-48.2 119.2,-107.4 v -74.2 h 114.7 v 74.2 z"
   id="path4"
   inkscape:connector-curvature="0" />
</svg>