<?xml version="1.0" encoding="UTF-8" standalone="no"?>
<svg
   xmlns:dc="http://purl.org/dc/elements/1.1/"
   xmlns:cc="http://creativecommons.org/ns#"
   xmlns:rdf="http://www.w3.org/1999/02/22-rdf-syntax-ns#"
   xmlns:svg="http://www.w3.org/2000/svg"
   xmlns="http://www.w3.org/2000/svg"
   height="1818.0112"
   width="2230.3999"
   xml:space="preserve"
   viewBox="0 0 2230.4 1818.0112"
   y="0px"
   x="0px"
   id="Layer_1"
   version="1.1"><metadata
   id="metadata11"><rdf:RDF><cc:Work
       rdf:about=""><dc:format>image/svg+xml</dc:format><dc:type
         rdf:resource="http://purl.org/dc/dcmitype/StillImage" /><dc:title></dc:title></cc:Work></rdf:RDF></metadata><defs
   id="defs9" />
<path
   id="path2"
   d="m 0,905.0556 v -48.3 c 119,-10.6 189.5,-56.6 206.8,-157.4 14.8,-85.8 -9.8,-249.3 -6.7,-387.8 3.5,-157 107.1,-289.200006 222.6,-305.8000058 48,-6.9 83,-8.3 121.4,-0.3 35,5.9999998 63.3,26.2999998 76.4,51.9999998 V 131.6556 H 508.1 c -98,11.1 -135.6,76.9 -157.4,179.9 -26.1,123 101.7,561.8 -170.9,593.6 272.6,31.7 144.8,470.5 170.9,593.6 21.8,103 59.3,168.8 157.4,179.9 h 112.4 v 74.2 c -13.2,25.7 -41.4,46 -76.4,52 -38.4,8 -73.4,6.6 -121.4,-0.3 -115.5,-16.6 -219.1,-148.8 -222.6,-305.8 -3.1,-138.5 21.5,-302.1 6.7,-387.8 -17.3,-101 -87.8,-147 -206.8,-157.6 z m 2230.4,7.7 v -48.3 c -119,-10.6 -189.5,-56.6 -206.8,-157.4 -14.8,-85.8 9.8,-249.3 6.7,-387.8 -3.5,-157 -107.1,-289.200006 -222.6,-305.800006 -48,-6.8999998 -83,-8.2999998 -121.4,-0.3 -35,6 -63.3,26.3 -76.4,52 V 139.3556 h 112.4 c 98,11.1 135.6,76.9 157.4,179.9 26.1,123 -101.7,561.8 170.9,593.6 -272.6,31.7 -144.8,470.5 -170.9,593.6 -21.8,103 -59.3,168.8 -157.4,179.9 h -112.4 v 74.2 c 13.2,25.7 41.4,46 76.4,52 38.4,8 73.4,6.6 121.4,-0.3 115.5,-16.6 219.1,-148.8 222.6,-305.8 3.1,-138.5 -21.5,-302.1 -6.7,-387.8 17.3,-100.8 87.8,-146.8 206.8,-157.4 z" />
<path
   id="path4"
   d="m 944.3,935.3556 c 0,-139.7 -112.7,-252.9 -251.8,-252.9 -139.1,0 -251.8,113.3 -251.8,252.9 H 539 c 0,-85.2 68.7,-154.2 153.5,-154.2 84.8,0 153.5,69.1 153.5,154.2 z m 852.1,0 c 0,-139.7 -112.7,-252.9 -251.8,-252.9 -139.1,0 -251.8,113.2 -251.8,252.9 h 98.3 c 0,-85.2 68.7,-154.2 153.5,-154.2 84.8,0 153.5,69 153.5,154.2 z m -431.7,333.9 c -6.1,118.6 -109.4,220.1 -233.8,219.2 -124.8,-0.9 -227.3,-102.3 -233.8,-219.2 v -74.2 h 114.7 v 74.2 c 5.7,60 59.6,109.2 119.2,107.4 60.5,-1.9 116.7,-48.2 119.2,-107.4 v -74.2 h 114.7 v 74.2 z" />
</svg>