<?xml version="1.0" encoding="UTF-8" standalone="no"?>
<svg
   xmlns:dc="http://purl.org/dc/elements/1.1/"
   xmlns:cc="http://creativecommons.org/ns#"
   xmlns:rdf="http://www.w3.org/1999/02/22-rdf-syntax-ns#"
   xmlns:svg="http://www.w3.org/2000/svg"
   xmlns="http://www.w3.org/2000/svg"
   height="979.99347"
   width="735.07501"
   version="1.1"
   x="0px"
   y="0px"
   viewBox="0 0 735.07501 979.99347"
   enable-background="new 0 0 1000 1000"
   xml:space="preserve"
   id="svg22"><defs
   id="defs26" />
<metadata
   id="metadata2"> Svg Vector Icons : http://www.onlinewebfonts.com/icon <rdf:RDF><cc:Work
     rdf:about=""><dc:format>image/svg+xml</dc:format><dc:type
       rdf:resource="http://purl.org/dc/dcmitype/StillImage" /><dc:title></dc:title></cc:Work></rdf:RDF></metadata>
<g
   transform="translate(-132.465,-10.00152)"
   id="g20"><g
     transform="matrix(0.1,0,0,-0.1,0,512)"
     id="g18"><path
       d="M 3247.9,4997.5 C 3179,4965 3163.7,4898 3163.7,4647.3 V 4408 h -851.6 c -581.8,0 -865,-5.7 -895.6,-21 -26.8,-11.5 -57.4,-42.1 -68.9,-68.9 -30.6,-65.1 -30.6,-8941.2 0,-9006.2 11.5,-26.8 42.1,-57.4 68.9,-68.9 65.1,-30.6 7104,-30.6 7169,0 26.8,11.5 57.4,42.1 68.9,68.9 15.3,32.5 21,1276.5 21,4503.1 0,3226.6 -5.7,4470.6 -21,4503.1 -11.5,26.8 -42.1,57.4 -68.9,68.9 -30.6,15.3 -313.8,21 -895.6,21 h -851.6 v 239.2 c 0,256.4 -15.3,317.7 -89.9,352.1 -63.3,28.8 -3441.1,26.9 -3500.5,-1.8 z M 6532,4101.8 V 3489.4 H 5001 3470 v 612.4 612.4 H 5001 6532 Z M 3163.7,3709.5 c 0,-415.3 9.6,-468.9 90,-505.2 32.5,-15.3 541.6,-21.1 1747.3,-21.1 1205.7,0 1714.8,5.7 1747.3,21.1 80.4,36.4 89.9,89.9 89.9,505.2 v 392.3 h 765.5 765.5 V -185 -4471.9 H 5001 1632.7 V -185 4101.9 h 765.5 765.5 z"
       id="path4" /><path
       d="m 3776.1,4168.8 c 0,-256.4 15.3,-317.7 90,-352.1 32.5,-15.3 377,-21.1 1134.9,-21.1 757.9,0 1102.3,5.7 1134.9,21.1 74.6,34.4 90,95.7 90,352.1 V 4408 H 6072.8 5919.7 V 4254.9 4101.8 H 5001 4082.4 v 153.1 153.1 h -153.1 -153.1 v -239.2 z"
       id="path6" /><path
       d="m 2329.3,3772.7 c -23,-9.6 -51.7,-40.2 -63.1,-65.1 -30.6,-67 -30.6,-7412.1 0,-7477.1 11.5,-26.8 42.1,-57.4 68.9,-68.9 65.1,-30.6 5266.7,-30.6 5331.8,0 26.8,11.5 57.4,42.1 68.9,68.9 30.6,65.1 30.6,7410.2 0,7475.2 -34.5,74.6 -95.7,90 -352.1,90 h -239.2 v -153.1 -153.1 h 153.1 153.1 V -31.9 -3553.3 H 5001 2551.3 V -31.9 3489.5 h 153.1 153.1 v 153.1 153.1 l -243.1,-1.9 c -135.8,-0.1 -264,-9.6 -285.1,-21.1 z"
       id="path8" /><path
       d="M 4731.1,2542.1 C 4384.7,2473.2 4178,2249.3 4111,1868.4 4047.9,1522 4103.4,1173.7 4264.1,901.9 4310,823.4 4321.5,789 4306.2,775.6 4292.8,766 4065.1,634 3801,482.8 L 3316.8,209.1 V -22.3 c 0,-323.4 44,-467 187.5,-625.8 139.7,-156.9 63.2,-149.3 1496.6,-149.3 1190.4,0 1278.4,3.8 1349.2,36.4 99.5,44 210.5,170.3 273.7,306.2 45.9,95.7 51.7,134 57.4,384.7 l 7.7,277.5 -486.1,275.6 c -266,151.2 -493.8,283.2 -507.1,292.8 -15.3,13.4 -3.8,47.8 42.1,126.3 262.2,444 229.7,1142.5 -65.1,1437.3 -195.2,195.1 -572.2,275.4 -941.6,202.7 z m 645,-344.5 c 99.5,-49.8 120.6,-70.8 168.4,-168.4 49.8,-97.6 55.5,-135.9 65.1,-338.8 15.3,-359.8 -47.9,-595.2 -200.9,-765.5 -130.1,-145.4 -210.5,-181.8 -407.6,-181.8 -197.1,0 -277.5,36.4 -407.6,181.8 -153.1,170.3 -216.3,407.6 -201,765.5 7.7,197.1 17.2,241.1 61.2,333 91.9,189.5 231.6,245 587.5,235.4 200.9,-5.7 231.5,-11.4 334.9,-61.2 z M 4706.2,496.3 c 216.3,-90 407.6,-84.2 641.1,19.1 l 109.1,49.8 461.2,-266 461.2,-264.1 v -166.5 c 0,-181.8 -36.4,-308.1 -97.6,-340.6 -45.9,-24.9 -2514.7,-24.9 -2560.6,0 -61.2,32.5 -97.6,158.8 -97.6,340.6 V 35.1 l 455.5,262.2 c 248.8,145.4 467,258.4 482.3,254.5 15.3,-3.9 80.4,-28.7 145.4,-55.5 z"
       id="path10" /><path
       d="m 3316.8,-1256.7 v -153.1 H 5001 6685.1 v 153.1 153.1 H 5001 3316.8 Z"
       id="path12" /><path
       d="m 3316.8,-1869.1 v -153.1 H 5001 6685.1 v 153.1 153.1 H 5001 3316.8 Z"
       id="path14" /><path
       d="m 3316.8,-2481.6 v -153.1 h 918.6 918.6 v 153.1 153.1 h -918.6 -918.6 z"
       id="path16" /></g></g>
</svg>